# xmcd
#
# Track frame offsets:
#	150
#	19267
#	27765
#	45498
#	61328
#	71952
#	82079
#	109211
#	120079
#	132355
#	143064
#	159478
#	177106
#
# Disc length: 2633 seconds
#
# Revision: 2
# Processed by: cddbd v1.5.2PL0 Copyright (c) Steve Scherf et al.
# Submitted via: EasyCDDAExtractor 5.0.6
#
DISCID=ac0a470d
DTITLE=Screamfeeder - Take You Apart
DYEAR=2003
DGENRE=Indie Rock
TTITLE0=Now I Don't Feel So Bad
TTITLE1=Needles
TTITLE2=I Don't Know What To Do Anymore
TTITLE3=And Tigers They Roam
TTITLE4=Same Mistakes Again
TTITLE5=I've Got The Knife
TTITLE6=You And Me
TTITLE7=Bunny
TTITLE8=On A Plane With Just One Wing
TTITLE9=The Space That's Left
TTITLE10=Make Up
TTITLE11=12345
TTITLE12=Ice Patrol
EXTD=YEAR: 2003\n
EXTT0=
EXTT1=
EXTT2=
EXTT3=
EXTT4=
EXTT5=
EXTT6=
EXTT7=
EXTT8=
EXTT9=
EXTT10=
EXTT11=
EXTT12=
PLAYORDER=
